<svg xmlns="http://www.w3.org/2000/svg" viewBox="0 0 841.89 310.58"><defs><style>.cls-1{fill:#1f6072;}.cls-2{fill:none;stroke:#b31d17;stroke-miterlimit:10;stroke-width:0.5px;}.cls-3{fill:#b31d17;}</style></defs><g id="LOGO_PREDIXIT" data-name="LOGO PREDIXIT"><path id="P" class="cls-1" d="M86.48,186v-4.49H99.79V90.63H86.48V86.14h53.57q11.13,0,19,3.83,14,6.82,14,22.62a29,29,0,0,1-2.66,12.48q-8,17-36.1,17h-14v39.43h12.14c2.33.22,3.83,1.71,4.5,4.49Zm33.77-95.32V137h13Q151,135.72,151,113.59c0-1.55-.05-3-.16-4.49q-2-18.46-18.3-18.47Z"/><path id="R" class="cls-1" d="M222.22,181.79q2.49.33,2.49,4.16H179.63v-4.33a24.57,24.57,0,0,0,5.49-.5q5-1.32,5-8.48V118.91H179.63v-4.16h27.45l1,15.64a29.3,29.3,0,0,1,5.49-8.65q8-8.33,18.13-8.32a16.52,16.52,0,0,1,4,.5q7.81,2,7.82,10a9.23,9.23,0,0,1-.83,3.83c-1.67,3.88-4.49,5.82-8.49,5.82a10,10,0,0,1-3.16-.5q-3.15-1-6-6.32-2.18-3.83-4.33-3.83a6.15,6.15,0,0,0-3.16,1.17q-7.81,5.49-9,21.46v36.09h12.14A6.31,6.31,0,0,1,222.22,181.79Z"/><path id="E" class="cls-1" d="M314.2,174.14q-8.47,13.47-27.44,13.47a40.72,40.72,0,0,1-20.13-5q-16.8-9.81-16.8-32.6,0-14,7.15-23.79,10.14-13.8,29.28-13.81a42.9,42.9,0,0,1,18.79,4q13.32,6.64,13.31,19.79a11.66,11.66,0,0,1-1.66,6.32q-5,7.65-29.94,7.15l-16.8-.33v.33q.82,33.1,20.29,33.11a22.37,22.37,0,0,0,7.15-1.17,24.5,24.5,0,0,0,15.31-13.8l4,1.33A35.77,35.77,0,0,1,314.2,174.14Zm-31.77-56.89q-11.81,3.66-12.47,27.28l12.81.5a39.68,39.68,0,0,0,10.64-.83q5.65-2,5.66-9.82a30.06,30.06,0,0,0-.5-5.49q-2-12.13-12.31-12.14A15.93,15.93,0,0,0,282.43,117.25Z"/><path id="D" class="cls-1" d="M407.85,86.14q18.13,0,31.61,8.65,20.79,13.47,20.79,41.42,0,22-14.64,35.76Q430.81,186,408,186H359.61v-4.49h13.31V90.63H359.61V86.14Zm-14.47,4.49v90.83H408a31.35,31.35,0,0,0,10-1.5q19.46-6.33,19.46-44.41,0-15.32-3-25.29Q428.31,90.64,408,90.63Z"/><g id="I_1" data-name="I 1"><polygon class="cls-1" points="512.63 90.63 512.63 86.14 480.82 86.14 478.56 86.14 471.74 86.14 471.74 90.63 478.56 90.63 478.56 181.46 471.74 181.46 471.74 185.95 480.82 185.95 480.82 185.95 512.63 185.95 512.63 181.46 499.33 181.46 499.33 90.63 512.63 90.63"/><line class="cls-2" x1="499.33" y1="90.63" x2="499.33" y2="181.46"/></g><g id="I_2" data-name="I 2"><polygon class="cls-1" points="677.82 90.63 677.82 86.14 671.32 86.14 668.74 86.14 637.25 86.14 637.25 90.63 650.55 90.63 650.55 181.46 637.25 181.46 637.25 185.95 668.74 185.95 668.74 185.95 677.82 185.95 677.82 181.46 670.37 181.46 671.32 90.63 677.82 90.63"/><line class="cls-2" x1="650.33" y1="90.63" x2="650.33" y2="181.46"/></g><path id="T" class="cls-1" d="M703.27,186v-4.49h15.8V90.63h-4.82a19.84,19.84,0,0,0-6,.84q-8.82,2.66-12.81,15.63l-4.32,13.81h-5L687,86.14H771.8l.67,34.77h-4.82l-4.33-13.81a43.42,43.42,0,0,0-1.5-4.16q-5.15-12.3-17.3-12.31h-5v90.83h11.31c2,.22,3.44,1.71,4.33,4.49Z"/></g><g id="Repère"><path class="cls-1" d="M578,132.05s29.54,14.26,28.48,34.79C606,175.61,596,180.12,599.19,184c2.74,3.38,8.68,0,8.68,0,5.1-2.92,15.55-11.11,14.34-28.48-1.62-23.28-34.2-39.91-34.75-40.19L576.63,109S547.1,94.72,548.16,74.19c.45-8.77,10.42-13.28,7.27-17.17-2.75-3.39-8.69,0-8.69,0-5.1,2.91-15.55,11.11-14.34,28.48,1.64,23.47,34.76,40.18,34.76,40.18Z"/><polygon class="cls-3" points="621.42 55.51 606.92 55.51 533.31 185.42 547.7 185.42 621.42 55.51"/><circle class="cls-3" cx="570.25" cy="74.97" r="7.88"/><circle class="cls-3" cx="581.91" cy="166.61" r="7.88"/></g></svg>